<?xml version="1.0" standalone="no"?><svg xmlns="http://www.w3.org/2000/svg" viewBox="0 0 1440 320"><path fill="#BDECF2" fill-opacity="1" d="M0,64L30,90.7C60,117,120,171,180,160C240,149,300,75,360,74.7C420,75,480,149,540,154.7C600,160,660,96,720,96C780,96,840,160,900,181.3C960,203,1020,181,1080,176C1140,171,1200,181,1260,170.7C1320,160,1380,128,1410,112L1440,96L1440,320L1410,320C1380,320,1320,320,1260,320C1200,320,1140,320,1080,320C1020,320,960,320,900,320C840,320,780,320,720,320C660,320,600,320,540,320C480,320,420,320,360,320C300,320,240,320,180,320C120,320,60,320,30,320L0,320Z"></path></svg>