<?xml version="1.0" standalone="no"?><svg xmlns="http://www.w3.org/2000/svg" viewBox="0 0 1440 320"><path fill="#0099ff" fill-opacity="1" d="M0,192L21.8,208C43.6,224,87,256,131,229.3C174.5,203,218,117,262,117.3C305.5,117,349,203,393,218.7C436.4,235,480,181,524,170.7C567.3,160,611,192,655,186.7C698.2,181,742,139,785,149.3C829.1,160,873,224,916,208C960,192,1004,96,1047,80C1090.9,64,1135,128,1178,165.3C1221.8,203,1265,213,1309,202.7C1352.7,192,1396,160,1418,144L1440,128L1440,0L1418.2,0C1396.4,0,1353,0,1309,0C1265.5,0,1222,0,1178,0C1134.5,0,1091,0,1047,0C1003.6,0,960,0,916,0C872.7,0,829,0,785,0C741.8,0,698,0,655,0C610.9,0,567,0,524,0C480,0,436,0,393,0C349.1,0,305,0,262,0C218.2,0,175,0,131,0C87.3,0,44,0,22,0L0,0Z"></path></svg>