<?xml version="1.0" standalone="no"?><svg xmlns="http://www.w3.org/2000/svg" viewBox="0 0 1440 320"><path fill="#5185FF" fill-opacity="1" d="M0,192L21.8,208C43.6,224,87,256,131,229.3C174.5,203,218,117,262,117.3C305.5,117,349,203,393,218.7C436.4,235,480,181,524,170.7C567.3,160,611,192,655,186.7C698.2,181,742,139,785,149.3C829.1,160,873,224,916,208C960,192,1004,96,1047,80C1090.9,64,1135,128,1178,165.3C1221.8,203,1265,213,1309,202.7C1352.7,192,1396,160,1418,144L1440,128L1440,320L1418.2,320C1396.4,320,1353,320,1309,320C1265.5,320,1222,320,1178,320C1134.5,320,1091,320,1047,320C1003.6,320,960,320,916,320C872.7,320,829,320,785,320C741.8,320,698,320,655,320C610.9,320,567,320,524,320C480,320,436,320,393,320C349.1,320,305,320,262,320C218.2,320,175,320,131,320C87.3,320,44,320,22,320L0,320Z"></path></svg>